<mxfile modified="2022-01-31T06:07:40.192Z" host="app.diagrams.net" agent="5.0 (Macintosh; Intel Mac OS X 10_15_7) AppleWebKit/537.36 (KHTML, like Gecko) Chrome/97.0.4692.99 Safari/537.36" etag="Rwoz7LnvEc6pMBtt0D8h" version="16.4.11" type="github">
  <diagram id="Ht1M8jgEwFfnCIfOTk4-" name="Page-1">
    <mxGraphModel dx="967" dy="865" grid="1" gridSize="10" guides="1" tooltips="1" connect="1" arrows="1" fold="1" page="1" pageScale="1" pageWidth="1169" pageHeight="827" math="0" shadow="0">
      <root>
        <mxCell id="0" />
        <mxCell id="1" parent="0" />
        <mxCell id="UEzPUAAOIrF-is8g5C7q-105" value="" style="edgeStyle=orthogonalEdgeStyle;rounded=0;orthogonalLoop=1;jettySize=auto;html=1;endArrow=open;endFill=0;strokeWidth=1;" parent="1" edge="1">
          <mxGeometry x="0.1208" y="-10" relative="1" as="geometry">
            <Array as="points">
              <mxPoint x="350" y="360" />
              <mxPoint x="350" y="240" />
            </Array>
            <mxPoint as="offset" />
            <mxPoint x="311.94" y="360" as="sourcePoint" />
            <mxPoint x="385.44" y="240" as="targetPoint" />
          </mxGeometry>
        </mxCell>
        <mxCell id="jgdBnrqnPz2JCd4Kqpbm-1" value="Findme Hospital" style="rounded=0;whiteSpace=wrap;html=1;gradientColor=#ffffff;fillColor=none;strokeColor=#FFFFFF;fontSize=15;" vertex="1" parent="1">
          <mxGeometry x="60" y="40" width="120" height="60" as="geometry" />
        </mxCell>
        <mxCell id="jgdBnrqnPz2JCd4Kqpbm-2" value="www.findme.life&lt;br&gt;/so/hospital/" style="rounded=1;whiteSpace=wrap;html=1;strokeColor=#000000;fillColor=none;gradientColor=#ffffff;fontSize=17;" vertex="1" parent="1">
          <mxGeometry x="50" y="110" width="130" height="60" as="geometry" />
        </mxCell>
        <mxCell id="jgdBnrqnPz2JCd4Kqpbm-5" value="" style="endArrow=classic;html=1;rounded=0;fontSize=17;" edge="1" parent="1">
          <mxGeometry width="50" height="50" relative="1" as="geometry">
            <mxPoint x="180" y="139.63" as="sourcePoint" />
            <mxPoint x="240" y="139.63" as="targetPoint" />
          </mxGeometry>
        </mxCell>
        <mxCell id="jgdBnrqnPz2JCd4Kqpbm-6" value="" style="outlineConnect=0;dashed=0;verticalLabelPosition=bottom;verticalAlign=top;align=center;html=1;shape=mxgraph.aws3.s3;fillColor=#E05243;gradientColor=none;fontSize=17;strokeColor=#000000;" vertex="1" parent="1">
          <mxGeometry x="472" y="110" width="50" height="60" as="geometry" />
        </mxCell>
        <mxCell id="jgdBnrqnPz2JCd4Kqpbm-7" value="" style="outlineConnect=0;dashed=0;verticalLabelPosition=bottom;verticalAlign=top;align=center;html=1;shape=mxgraph.aws3.cloudfront;fillColor=#F58536;gradientColor=none;fontSize=17;strokeColor=#000000;" vertex="1" parent="1">
          <mxGeometry x="250" y="110" width="50" height="60" as="geometry" />
        </mxCell>
        <mxCell id="jgdBnrqnPz2JCd4Kqpbm-9" value="" style="edgeStyle=elbowEdgeStyle;elbow=vertical;endArrow=classic;html=1;rounded=0;fontSize=17;" edge="1" parent="1">
          <mxGeometry width="50" height="50" relative="1" as="geometry">
            <mxPoint x="320" y="141" as="sourcePoint" />
            <mxPoint x="380" y="219" as="targetPoint" />
            <Array as="points">
              <mxPoint x="310" y="219" />
            </Array>
          </mxGeometry>
        </mxCell>
        <mxCell id="jgdBnrqnPz2JCd4Kqpbm-10" value="User sign in / sign up" style="rounded=0;whiteSpace=wrap;html=1;gradientColor=#ffffff;fillColor=none;strokeColor=#FFFFFF;fontSize=15;" vertex="1" parent="1">
          <mxGeometry x="54" y="270" width="125" height="60" as="geometry" />
        </mxCell>
        <mxCell id="jgdBnrqnPz2JCd4Kqpbm-11" value="id.findme.life/users" style="rounded=1;whiteSpace=wrap;html=1;strokeColor=#000000;fillColor=none;gradientColor=#ffffff;fontSize=17;" vertex="1" parent="1">
          <mxGeometry x="40" y="326" width="150" height="52" as="geometry" />
        </mxCell>
        <mxCell id="jgdBnrqnPz2JCd4Kqpbm-12" value="" style="endArrow=classic;html=1;rounded=0;fontSize=17;" edge="1" parent="1">
          <mxGeometry width="50" height="50" relative="1" as="geometry">
            <mxPoint x="187.0000000000001" y="353.57" as="sourcePoint" />
            <mxPoint x="247.0000000000001" y="353.57" as="targetPoint" />
          </mxGeometry>
        </mxCell>
        <mxCell id="jgdBnrqnPz2JCd4Kqpbm-13" value="" style="outlineConnect=0;dashed=0;verticalLabelPosition=bottom;verticalAlign=top;align=center;html=1;shape=mxgraph.aws3.cloudfront;fillColor=#F58536;gradientColor=none;fontSize=17;strokeColor=#000000;" vertex="1" parent="1">
          <mxGeometry x="250" y="324" width="50" height="60" as="geometry" />
        </mxCell>
        <mxCell id="jgdBnrqnPz2JCd4Kqpbm-16" value="" style="outlineConnect=0;dashed=0;verticalLabelPosition=bottom;verticalAlign=top;align=center;html=1;shape=mxgraph.aws3.application_load_balancer;fillColor=#F58534;gradientColor=none;fontSize=17;strokeColor=#000000;" vertex="1" parent="1">
          <mxGeometry x="391" y="193" width="69" height="72" as="geometry" />
        </mxCell>
        <mxCell id="jgdBnrqnPz2JCd4Kqpbm-17" value="" style="outlineConnect=0;dashed=0;verticalLabelPosition=bottom;verticalAlign=top;align=center;html=1;shape=mxgraph.aws3.s3;fillColor=#E05243;gradientColor=none;fontSize=17;strokeColor=#000000;" vertex="1" parent="1">
          <mxGeometry x="700" y="100" width="50" height="60" as="geometry" />
        </mxCell>
        <mxCell id="jgdBnrqnPz2JCd4Kqpbm-27" value="" style="outlineConnect=0;dashed=0;verticalLabelPosition=bottom;verticalAlign=top;align=center;html=1;shape=mxgraph.aws3.ec2;fillColor=#F58534;gradientColor=none;fontSize=17;strokeColor=#000000;" vertex="1" parent="1">
          <mxGeometry x="710" y="280" width="76.5" height="93" as="geometry" />
        </mxCell>
        <mxCell id="jgdBnrqnPz2JCd4Kqpbm-31" value="" style="endArrow=classic;html=1;rounded=0;fontSize=17;" edge="1" parent="1">
          <mxGeometry relative="1" as="geometry">
            <mxPoint x="307" y="139.41" as="sourcePoint" />
            <mxPoint x="467" y="139.41" as="targetPoint" />
          </mxGeometry>
        </mxCell>
        <mxCell id="jgdBnrqnPz2JCd4Kqpbm-32" value="/assets/*&lt;br&gt;/packs/*" style="edgeLabel;resizable=0;html=1;align=center;verticalAlign=middle;fontSize=17;strokeColor=#000000;fillColor=none;gradientColor=#ffffff;" connectable="0" vertex="1" parent="jgdBnrqnPz2JCd4Kqpbm-31">
          <mxGeometry relative="1" as="geometry" />
        </mxCell>
        <mxCell id="jgdBnrqnPz2JCd4Kqpbm-35" value="Application&lt;br&gt;Load&lt;br&gt;Balancer" style="rounded=0;whiteSpace=wrap;html=1;gradientColor=#ffffff;fillColor=none;strokeColor=#FFFFFF;fontSize=15;" vertex="1" parent="1">
          <mxGeometry x="370" y="266" width="120" height="60" as="geometry" />
        </mxCell>
        <mxCell id="jgdBnrqnPz2JCd4Kqpbm-37" value="" style="outlineConnect=0;dashed=0;verticalLabelPosition=bottom;verticalAlign=top;align=center;html=1;shape=mxgraph.aws3.ecr;fillColor=#F58534;gradientColor=none;fontSize=17;strokeColor=#000000;" vertex="1" parent="1">
          <mxGeometry x="472" y="330" width="69" height="72" as="geometry" />
        </mxCell>
        <mxCell id="jgdBnrqnPz2JCd4Kqpbm-38" value="Amazon&lt;br&gt;ECR" style="rounded=0;whiteSpace=wrap;html=1;gradientColor=#ffffff;fillColor=none;strokeColor=#FFFFFF;fontSize=15;" vertex="1" parent="1">
          <mxGeometry x="444.25" y="414" width="124.5" height="30" as="geometry" />
        </mxCell>
      </root>
    </mxGraphModel>
  </diagram>
</mxfile>
